<svg width="24" height="25" viewBox="0 0 24 25" fill="none" xmlns="http://www.w3.org/2000/svg">
<path d="M8 7.28461H8.5V6.78461V5.03461C8.5 4.06811 9.2835 3.28461 10.25 3.28461H13.75C14.7165 3.28461 15.5 4.06812 15.5 5.03461V6.78461V7.28461H16H17.75C19.2688 7.28461 20.5 8.51582 20.5 10.0346V11.5346C20.5 11.8409 20.39 12.1217 20.2066 12.3394C19.4947 11.685 18.5439 11.2846 17.5 11.2846C16.3015 11.2846 15.2262 11.8121 14.4937 12.646C14.4237 11.8825 13.7817 11.2846 13 11.2846H11C10.1716 11.2846 9.5 11.9562 9.5 12.7846H4.75C4.05964 12.7846 3.5 12.225 3.5 11.5346V10.0346C3.5 8.51582 4.73121 7.28461 6.25 7.28461H8ZM9 6.78461V7.28461H9.5H14.5H15V6.78461V5.03461C15 4.34425 14.4403 3.78461 13.75 3.78461H10.25C9.55965 3.78461 9 4.34425 9 5.03461V6.78461ZM13 16.2846C13.212 16.2846 13.4137 16.2406 13.5965 16.1613C13.6925 16.5904 13.8574 16.9935 14.0789 17.3583C12.6912 17.6577 11.6302 18.837 11.5111 20.2846H6.25C4.73122 20.2846 3.5 19.0534 3.5 17.5346V15.0711C3.89123 15.2094 4.31209 15.2846 4.75 15.2846H9.58535C9.79126 15.8672 10.3469 16.2846 11 16.2846H13ZM19.5 15.2846C19.5 16.3892 18.6046 17.2846 17.5 17.2846C16.3954 17.2846 15.5 16.3892 15.5 15.2846C15.5 14.18 16.3954 13.2846 17.5 13.2846C18.6046 13.2846 19.5 14.18 19.5 15.2846ZM21.5 20.6596C21.5 21.2931 21.242 21.9294 20.6404 22.4175C20.0317 22.9112 19.0303 23.2846 17.5 23.2846C15.9693 23.2846 14.9679 22.9125 14.3594 22.4195C13.7583 21.9325 13.5 21.2964 13.5 20.6596V20.5566C13.5 19.8539 14.0696 19.2846 14.7727 19.2846H20.2273C20.9304 19.2846 21.5 19.854 21.5 20.5566V20.6596Z" stroke="#2767E3"/>
</svg>
