<svg width="24" height="25" viewBox="0 0 24 25" fill="none" xmlns="http://www.w3.org/2000/svg">
<path d="M18.5 9.7846C18.8376 9.7846 19.1641 9.73679 19.473 9.64758C19.4909 9.85885 19.5 10.0726 19.5 10.2885V14.287L20.9183 17.4471C20.9732 17.5694 21.0016 17.702 21.0016 17.8361C21.0016 18.3608 20.5763 18.7861 20.0516 18.7861H3.95219C3.8184 18.7861 3.68613 18.7579 3.56402 18.7032C3.08515 18.4888 2.87073 17.9268 3.08511 17.4479L4.50001 14.2874L4.50011 10.2756L4.50453 10.0257C4.6436 5.99495 7.95588 2.78851 12 2.78851C13.4433 2.78851 14.7915 3.19622 15.9355 3.90275C15.355 4.52746 15 5.36457 15 6.2846C15 8.2176 16.567 9.7846 18.5 9.7846ZM14.9583 19.7876C14.7196 21.2057 13.486 22.2861 12 22.2861C10.514 22.2861 9.28037 21.2057 9.04173 19.7876H14.9583ZM18.5 8.7846C19.8807 8.7846 21 7.66531 21 6.2846C21 4.90389 19.8807 3.7846 18.5 3.7846C17.1193 3.7846 16 4.90389 16 6.2846C16 7.66531 17.1193 8.7846 18.5 8.7846Z" fill="#2767E3"/>
</svg>
