<svg width="24" height="25" viewBox="0 0 24 25" fill="none" xmlns="http://www.w3.org/2000/svg">
<path d="M6.25 3.78461C4.45507 3.78461 3 5.23969 3 7.03461V18.5346C3 20.3295 4.45508 21.7846 6.25 21.7846H17.75C19.5449 21.7846 21 20.3295 21 18.5346V7.03461C21 5.23968 19.5449 3.78461 17.75 3.78461H6.25ZM8.21967 9.00428C8.51256 8.71139 8.98744 8.71139 9.28033 9.00428L12 11.7239L14.7197 9.00428C15.0126 8.71139 15.4874 8.71139 15.7803 9.00428C16.0732 9.29717 16.0732 9.77205 15.7803 10.0649L13.0607 12.7846L15.7803 15.5043C16.0732 15.7972 16.0732 16.272 15.7803 16.5649C15.4874 16.8578 15.0126 16.8578 14.7197 16.5649L12 13.8453L9.28033 16.5649C8.98744 16.8578 8.51256 16.8578 8.21967 16.5649C7.92678 16.272 7.92678 15.7972 8.21967 15.5043L10.9393 12.7846L8.21967 10.0649C7.92678 9.77205 7.92678 9.29717 8.21967 9.00428Z" fill="#E34927"/>
</svg>
