<svg width="16" height="17" viewBox="0 0 16 17" fill="none" xmlns="http://www.w3.org/2000/svg">
<path d="M4.33334 2.11794C3.96515 2.11794 3.66667 2.41642 3.66667 2.78461V2.85895C2.33068 3.1621 1.33334 4.35688 1.33334 5.7846V6.04033C1.33334 7.29934 2.05923 8.44548 3.19742 8.98361L3.66667 9.20548V13.2988C3.07828 13.0417 2.66667 12.4545 2.66667 11.7708V11.2074C2.66667 10.8392 2.36819 10.5407 2 10.5407C1.63182 10.5407 1.33334 10.8392 1.33334 11.2074V11.7708C1.33334 13.1993 2.3314 14.3935 3.66667 14.6965V14.779C3.66667 15.1471 3.96515 15.4457 4.33334 15.4457C4.70152 15.4457 5 15.1471 5 14.779V14.6964C6.33672 14.3931 7.33334 13.1977 7.33334 11.7708V11.5225C7.33334 10.2657 6.60876 9.12168 5.47264 8.58454L5 8.36108V4.25663C5.58863 4.51382 5.99999 5.10117 5.99999 5.7846V6.36122C5.99999 6.7294 6.29846 7.02788 6.66666 7.02788C7.03487 7.02788 7.33334 6.7294 7.33334 6.36122V5.7846C7.33334 4.35688 6.33599 3.1621 5 2.85895V2.78461C5 2.41642 4.70152 2.11794 4.33334 2.11794ZM2.66667 5.7846C2.66667 5.10116 3.07804 4.5138 3.66667 4.25662V7.72701C3.05278 7.39144 2.66667 6.7459 2.66667 6.04033V5.7846ZM5 13.2987V9.83934C5.61379 10.1733 5.99999 10.8179 6 11.5225V11.7708C6 12.4539 5.58888 13.0415 5 13.2987Z" fill="#212121"/>
</svg>
