<svg width="18" height="18" viewBox="0 0 18 18" fill="none" xmlns="http://www.w3.org/2000/svg">
<path d="M9.99998 17.9999C10.5523 17.9999 11 17.5521 11 16.9999C11 16.4476 10.5523 15.9999 9.99998 15.9999H3.41433L17.7071 1.70709C18.0976 1.31656 18.0976 0.683405 17.7071 0.292875C17.3166 -0.0976452 16.6834 -0.0976452 16.2929 0.292875L1.99998 14.5858L1.99998 7.99988C1.99998 7.44758 1.55226 6.99985 0.999977 6.99985C0.447697 6.99985 -2.28882e-05 7.44758 -2.28882e-05 7.99988L-2.28882e-05 16.9999C-2.28882e-05 17.5521 0.447697 17.9999 0.999977 17.9999H9.99998Z" fill="#0CBA1D"/>
</svg>
