<svg width="24" height="24" viewBox="0 0 24 24" fill="none" xmlns="http://www.w3.org/2000/svg">
<path d="M5 5.75H4.5V6.25V7.25C4.5 7.38807 4.38807 7.5 4.25 7.5H3.25H2.75V8V9.5V10H3.25H4.25C5.76878 10 7 8.76878 7 7.25V6.25V5.75H6.5H5ZM2.75 14V14.5H3.25H4.25C4.38806 14.5 4.5 14.6119 4.5 14.75V15.75V16.25H5H6.5H7V15.75V14.75C7 13.2313 5.76879 12 4.25 12H3.25H2.75V12.5V14ZM17.75 14.5H18.25V14V12.5V12H17.75H16.75C15.2313 12 14 13.2313 14 14.75V15.75V16.25H14.5H16H16.5V15.75V14.75C16.5 14.6119 16.6119 14.5 16.75 14.5H17.75ZM16.5 6.25V5.75H16H14.5H14V6.25V7.25C14 8.76879 15.2313 10 16.75 10H17.75H18.25V9.5V8V7.5H17.75H16.75C16.6119 7.5 16.5 7.38806 16.5 7.25V6.25ZM2.5 6.75C2.5 6.05964 3.05964 5.5 3.75 5.5H17.25C17.9404 5.5 18.5 6.05964 18.5 6.75V15.25C18.5 15.9404 17.9404 16.5 17.25 16.5H3.75C3.05964 16.5 2.5 15.9404 2.5 15.25V6.75ZM10.5 14C12.0187 14 13.25 12.7687 13.25 11.25C13.25 9.73126 12.0187 8.5 10.5 8.5C8.98121 8.5 7.75 9.73126 7.75 11.25C7.75 12.7687 8.98121 14 10.5 14ZM7 19.5C6.43728 19.5 5.91774 19.3142 5.49963 19H17.25C19.321 19 21 17.321 21 15.25V8.49962C21.3142 8.91774 21.5 9.43728 21.5 10V15.25C21.5 17.5973 19.5973 19.5 17.25 19.5H7Z" stroke="#2767E3"/>
</svg>
