<svg width="24" height="24" viewBox="0 0 24 24" fill="none" xmlns="http://www.w3.org/2000/svg">
<path d="M13.1284 2.91534L13.1284 2.91535L19.8784 8.60989L19.8784 8.6099C20.2726 8.94241 20.5 9.4318 20.5 9.94747V19.2526C20.5 19.943 19.9404 20.5026 19.25 20.5026H16.25C15.5596 20.5026 15 19.943 15 19.2526V15.25C15 14.2989 14.2415 13.5252 13.2961 13.5006L13.2961 13.5004H13.2831H10.7169V13.5002L10.7039 13.5006C9.75853 13.5252 9 14.2989 9 15.25V19.2526C9 19.943 8.44036 20.5026 7.75 20.5026H4.75C4.05964 20.5026 3.5 19.943 3.5 19.2526V9.94747C3.5 9.4318 3.72743 8.9424 4.12157 8.60989L10.8716 2.91535L10.8716 2.91534C11.5234 2.36546 12.4766 2.36546 13.1284 2.91534Z" stroke="#2767E3"/>
</svg>
