<svg width="18" height="18" viewBox="0 0 18 18" fill="none" xmlns="http://www.w3.org/2000/svg">
<path d="M7.99995 -2.18153e-05C7.44765 -2.18153e-05 6.99995 0.447778 6.99995 0.999978C6.99995 1.55228 7.44765 1.99998 7.99995 1.99998L14.5856 1.99998L0.292855 16.2928C-0.0976446 16.6833 -0.0976446 17.3165 0.292855 17.707C0.683355 18.0975 1.31656 18.0975 1.70706 17.707L16 3.41408L16 9.99998C16 10.5523 16.4477 11 17 11C17.5522 11 18 10.5523 18 9.99998L18 0.999978C18 0.447778 17.5522 -2.18153e-05 17 -2.18153e-05L7.99995 -2.18153e-05Z" fill="#E34927"/>
</svg>
