<svg width="16" height="19" viewBox="0 0 16 19" fill="none" xmlns="http://www.w3.org/2000/svg">
<path d="M11.5 5V5.5H12H12.75C14.2688 5.5 15.5 6.73122 15.5 8.25V15.75C15.5 17.2688 14.2688 18.5 12.75 18.5H3.25C1.73122 18.5 0.5 17.2688 0.5 15.75V8.25C0.5 6.73121 1.73121 5.5 3.25 5.5H4H4.5V5V4C4.5 2.067 6.067 0.5 8 0.5C9.93296 0.5 11.5 2.06701 11.5 4V5ZM5 5V5.5H5.5H10.5H11V5V4C11 2.34315 9.65684 1 8 1C6.34316 1 5 2.34315 5 4V5ZM8 14C9.10454 14 10 13.1045 10 12C10 10.8955 9.10454 10 8 10C6.89546 10 6 10.8955 6 12C6 13.1045 6.89546 14 8 14Z" stroke="#2767E3"/>
</svg>
