<svg width="24" height="25" viewBox="0 0 24 25" fill="none" xmlns="http://www.w3.org/2000/svg">
<path d="M2.75 20.2846C2.3703 20.2846 2.0565 20.0025 2.0068 19.6364L2 19.5346L2 6.03461C2 5.62041 2.3358 5.28461 2.75 5.28461C3.1297 5.28461 3.4435 5.56681 3.4931 5.93281L3.5 6.03461L3.5 19.5346C3.5 19.9488 3.1642 20.2846 2.75 20.2846ZM11.7902 18.3976L11.707 18.4918C11.3465 18.8522 10.7793 18.8799 10.387 18.5748L10.2928 18.4916L5.2962 13.494C4.936 13.1337 4.9081 12.5668 5.2127 12.1745L5.2958 12.0803L10.2924 7.07691C10.6827 6.68611 11.3158 6.68571 11.7066 7.07591C12.0673 7.43621 12.0955 8.00341 11.7907 8.39591L11.7076 8.49011L8.419 11.7846L21 11.7846C21.5128 11.7846 21.9355 12.1706 21.9933 12.668L22 12.7846C22 13.2974 21.614 13.7201 21.1166 13.7779L21 13.7846L8.416 13.7846L11.7072 17.0776C12.0676 17.4381 12.0953 18.0053 11.7902 18.3976Z" fill="#FF0000"/>
</svg>
