<svg width="33" height="38" viewBox="0 0 33 38" fill="none" xmlns="http://www.w3.org/2000/svg">
<rect width="33" height="38" rx="4" fill="white"/>
<path d="M4.125 26.9165H20.625C21.3844 26.9165 22 27.6254 22 28.4998C22 29.3118 21.4693 29.981 20.7853 30.0726L20.625 30.0832H4.125C3.36561 30.0832 2.75 29.3743 2.75 28.4998C2.75 27.6879 3.2808 27.0186 3.96465 26.9271L4.125 26.9165ZM4.125 17.4165H28.875C29.6344 17.4165 30.25 18.1254 30.25 18.9998C30.25 19.8118 29.7193 20.481 29.0353 20.5726L28.875 20.5832H4.125C3.36561 20.5832 2.75 19.8743 2.75 18.9998C2.75 18.1879 3.2808 17.5186 3.96465 17.4271L4.125 17.4165ZM4.125 7.9165H24.75C25.5094 7.9165 26.125 8.62539 26.125 9.49984C26.125 10.3118 25.5943 10.9811 24.9103 11.0725L24.75 11.0832H4.125C3.36561 11.0832 2.75 10.3743 2.75 9.49984C2.75 8.68784 3.2808 8.01861 3.96465 7.92716L4.125 7.9165Z" fill="#212121"/>
</svg>
