<svg width="16" height="21" viewBox="0 0 16 21" fill="none" xmlns="http://www.w3.org/2000/svg">
<path d="M13.7545 12.7848C14.9966 12.7848 16.0034 13.7916 16.0034 15.0337V15.9521C16.0034 16.5255 15.8242 17.0845 15.4908 17.551C13.9449 19.7142 11.4206 20.7859 8.0004 20.7859C4.5794 20.7859 2.05643 19.7138 0.514266 17.5494C0.182306 17.0835 0.00390625 16.5257 0.00390625 15.9536V15.0337C0.00390625 13.7916 1.01076 12.7848 2.25278 12.7848H13.7545ZM8.0004 0.789486C10.7618 0.789486 13.0004 3.02807 13.0004 5.78949C13.0004 8.55092 10.7618 10.7895 8.0004 10.7895C5.23894 10.7895 3.00036 8.55092 3.00036 5.78949C3.00036 3.02807 5.23894 0.789486 8.0004 0.789486Z" fill="white"/>
</svg>
