<svg width="24" height="25" viewBox="0 0 24 25" fill="none" xmlns="http://www.w3.org/2000/svg">
<path d="M17.7545 14.7848C18.9966 14.7848 20.0034 15.7916 20.0034 17.0337V17.9521C20.0034 18.5255 19.8242 19.0845 19.4908 19.551C17.9449 21.7142 15.4206 22.7859 12.0004 22.7859C8.5794 22.7859 6.05643 21.7138 4.51427 19.5494C4.18231 19.0835 4.00391 18.5257 4.00391 17.9536V17.0337C4.00391 15.7916 5.01076 14.7848 6.25278 14.7848H17.7545ZM12.0004 2.78949C14.7618 2.78949 17.0004 5.02807 17.0004 7.78949C17.0004 10.5509 14.7618 12.7895 12.0004 12.7895C9.23894 12.7895 7.00036 10.5509 7.00036 7.78949C7.00036 5.02807 9.23894 2.78949 12.0004 2.78949Z" fill="#2767E3"/>
</svg>
