<svg width="105" height="60" viewBox="0 0 105 60" fill="none" xmlns="http://www.w3.org/2000/svg">
<path d="M34.7585 33V24.2727H38.2528C38.8949 24.2727 39.4304 24.3679 39.8594 24.5582C40.2884 24.7486 40.6108 25.0128 40.8267 25.3509C41.0426 25.6861 41.1506 26.0724 41.1506 26.5099C41.1506 26.8509 41.0824 27.1506 40.946 27.4091C40.8097 27.6648 40.6222 27.875 40.3835 28.0398C40.1477 28.2017 39.8778 28.3168 39.5739 28.3849V28.4702C39.9063 28.4844 40.2173 28.5781 40.5071 28.7514C40.7997 28.9247 41.0369 29.1676 41.2188 29.4801C41.4006 29.7898 41.4915 30.1591 41.4915 30.5881C41.4915 31.0511 41.3764 31.4645 41.1463 31.8281C40.919 32.1889 40.5824 32.4744 40.1364 32.6847C39.6903 32.8949 39.1406 33 38.4872 33H34.7585ZM36.6037 31.4915H38.108C38.6222 31.4915 38.9972 31.3935 39.233 31.1974C39.4688 30.9986 39.5866 30.7344 39.5866 30.4048C39.5866 30.1634 39.5284 29.9503 39.4119 29.7656C39.2955 29.581 39.1293 29.4361 38.9134 29.331C38.7003 29.2259 38.446 29.1733 38.1506 29.1733H36.6037V31.4915ZM36.6037 27.9247H37.9716C38.2244 27.9247 38.4489 27.8807 38.6449 27.7926C38.8438 27.7017 39 27.5739 39.1136 27.4091C39.2301 27.2443 39.2884 27.0469 39.2884 26.8168C39.2884 26.5014 39.1761 26.2472 38.9517 26.054C38.7301 25.8608 38.4148 25.7642 38.0057 25.7642H36.6037V27.9247ZM44.5245 33.1236C44.1069 33.1236 43.7347 33.0511 43.408 32.9062C43.0813 32.7585 42.8228 32.5412 42.6325 32.2543C42.445 31.9645 42.3512 31.6037 42.3512 31.1719C42.3512 30.8082 42.418 30.5028 42.5515 30.2557C42.685 30.0085 42.8668 29.8097 43.0969 29.6591C43.3271 29.5085 43.5884 29.3949 43.881 29.3182C44.1765 29.2415 44.4862 29.1875 44.81 29.1562C45.1907 29.1165 45.4975 29.0795 45.7305 29.0455C45.9634 29.0085 46.1325 28.9545 46.2376 28.8835C46.3427 28.8125 46.3952 28.7074 46.3952 28.5682V28.5426C46.3952 28.2727 46.31 28.0639 46.1396 27.9162C45.9719 27.7685 45.7333 27.6946 45.4237 27.6946C45.0969 27.6946 44.837 27.767 44.6438 27.9119C44.4506 28.054 44.3228 28.233 44.2603 28.4489L42.5813 28.3125C42.6665 27.9148 42.8342 27.571 43.0842 27.2812C43.3342 26.9886 43.6566 26.7642 44.0515 26.608C44.4492 26.4489 44.9094 26.3693 45.4322 26.3693C45.7958 26.3693 46.1438 26.4119 46.4762 26.4972C46.8114 26.5824 47.1083 26.7145 47.3668 26.8935C47.6282 27.0724 47.8342 27.3026 47.9847 27.5838C48.1353 27.8622 48.2106 28.196 48.2106 28.5852V33H46.489V32.0923H46.4379C46.3327 32.2969 46.1921 32.4773 46.016 32.6335C45.8398 32.7869 45.6282 32.9077 45.381 32.9957C45.1339 33.081 44.8484 33.1236 44.5245 33.1236ZM45.0444 31.8707C45.3114 31.8707 45.5472 31.8182 45.7518 31.7131C45.9563 31.6051 46.1168 31.4602 46.2333 31.2784C46.3498 31.0966 46.408 30.8906 46.408 30.6605V29.9659C46.3512 30.0028 46.2731 30.0369 46.1737 30.0682C46.0771 30.0966 45.9677 30.1236 45.8455 30.1491C45.7234 30.1719 45.6012 30.1932 45.479 30.2131C45.3569 30.2301 45.2461 30.2457 45.1467 30.2599C44.9336 30.2912 44.7475 30.3409 44.5884 30.4091C44.4293 30.4773 44.3058 30.5696 44.2177 30.6861C44.1296 30.7997 44.0856 30.9418 44.0856 31.1122C44.0856 31.3594 44.1751 31.5483 44.354 31.679C44.5359 31.8068 44.766 31.8707 45.0444 31.8707ZM51.4343 29.2159V33H49.619V26.4545H51.3491V27.6094H51.4258C51.5707 27.2287 51.8136 26.9276 52.1545 26.706C52.4954 26.4815 52.9087 26.3693 53.3945 26.3693C53.8491 26.3693 54.2454 26.4688 54.5835 26.6676C54.9215 26.8665 55.1843 27.1506 55.3718 27.5199C55.5593 27.8864 55.6531 28.3239 55.6531 28.8324V33H53.8377V29.1562C53.8406 28.7557 53.7383 28.4432 53.5309 28.2188C53.3235 27.9915 53.038 27.8778 52.6744 27.8778C52.43 27.8778 52.2141 27.9304 52.0266 28.0355C51.842 28.1406 51.6971 28.294 51.592 28.4957C51.4897 28.6946 51.4371 28.9347 51.4343 29.2159ZM58.7287 31.1165L58.733 28.9389H58.9972L61.0938 26.4545H63.1776L60.3608 29.7443H59.9304L58.7287 31.1165ZM57.0838 33V24.2727H58.8991V33H57.0838ZM61.1747 33L59.2486 30.1491L60.4588 28.8665L63.3011 33H61.1747ZM66.756 33.1278C66.0856 33.1278 65.5089 32.9858 65.0259 32.7017C64.5458 32.4148 64.1765 32.017 63.918 31.5085C63.6623 31 63.5344 30.4148 63.5344 29.7528C63.5344 29.0824 63.6637 28.4943 63.9222 27.9886C64.1836 27.4801 64.5543 27.0838 65.0344 26.7997C65.5146 26.5128 66.0856 26.3693 66.7475 26.3693C67.3185 26.3693 67.8185 26.473 68.2475 26.6804C68.6765 26.8878 69.016 27.179 69.266 27.554C69.516 27.929 69.6538 28.3693 69.6793 28.875H67.9663C67.918 28.5483 67.7901 28.2855 67.5827 28.0866C67.3782 27.8849 67.1097 27.7841 66.7773 27.7841C66.4961 27.7841 66.2504 27.8608 66.0401 28.0142C65.8327 28.1648 65.6708 28.3849 65.5543 28.6747C65.4379 28.9645 65.3796 29.3153 65.3796 29.7273C65.3796 30.1449 65.4364 30.5 65.5501 30.7926C65.6665 31.0852 65.8299 31.3082 66.0401 31.4616C66.2504 31.6151 66.4961 31.6918 66.7773 31.6918C66.9847 31.6918 67.1708 31.6491 67.3356 31.5639C67.5032 31.4787 67.641 31.3551 67.7489 31.1932C67.8597 31.0284 67.9322 30.831 67.9663 30.6009H69.6793C69.6509 31.1009 69.5146 31.5412 69.2702 31.9219C69.0288 32.2997 68.695 32.5952 68.2688 32.8082C67.8427 33.0213 67.3384 33.1278 66.756 33.1278ZM73.799 33.1278C73.1371 33.1278 72.5646 32.9872 72.0817 32.706C71.6016 32.4219 71.2308 32.027 70.9695 31.5213C70.7081 31.0128 70.5774 30.4233 70.5774 29.7528C70.5774 29.0767 70.7081 28.4858 70.9695 27.9801C71.2308 27.4716 71.6016 27.0767 72.0817 26.7955C72.5646 26.5114 73.1371 26.3693 73.799 26.3693C74.4609 26.3693 75.032 26.5114 75.5121 26.7955C75.995 27.0767 76.3672 27.4716 76.6286 27.9801C76.8899 28.4858 77.0206 29.0767 77.0206 29.7528C77.0206 30.4233 76.8899 31.0128 76.6286 31.5213C76.3672 32.027 75.995 32.4219 75.5121 32.706C75.032 32.9872 74.4609 33.1278 73.799 33.1278ZM73.8075 31.7216C74.1087 31.7216 74.3601 31.6364 74.5618 31.4659C74.7635 31.2926 74.9155 31.0568 75.0178 30.7585C75.1229 30.4602 75.1754 30.1207 75.1754 29.7401C75.1754 29.3594 75.1229 29.0199 75.0178 28.7216C74.9155 28.4233 74.7635 28.1875 74.5618 28.0142C74.3601 27.8409 74.1087 27.7543 73.8075 27.7543C73.5036 27.7543 73.2479 27.8409 73.0405 28.0142C72.8359 28.1875 72.6811 28.4233 72.576 28.7216C72.4737 29.0199 72.4226 29.3594 72.4226 29.7401C72.4226 30.1207 72.4737 30.4602 72.576 30.7585C72.6811 31.0568 72.8359 31.2926 73.0405 31.4659C73.2479 31.6364 73.5036 31.7216 73.8075 31.7216ZM78.201 33V26.4545H79.9609V27.5966H80.0291C80.1484 27.1903 80.3487 26.8835 80.63 26.6761C80.9112 26.4659 81.2351 26.3608 81.6016 26.3608C81.6925 26.3608 81.7905 26.3665 81.8956 26.3778C82.0007 26.3892 82.093 26.4048 82.1726 26.4247V28.0355C82.0874 28.0099 81.9695 27.9872 81.8189 27.9673C81.6683 27.9474 81.5305 27.9375 81.4055 27.9375C81.1385 27.9375 80.8999 27.9957 80.6896 28.1122C80.4822 28.2259 80.3175 28.3849 80.1953 28.5895C80.076 28.794 80.0163 29.0298 80.0163 29.2969V33H78.201ZM83.1112 35.4545V26.4545H84.9009V27.554H84.9819C85.0614 27.3778 85.1765 27.1989 85.3271 27.017C85.4805 26.8324 85.6793 26.679 85.9237 26.5568C86.1708 26.4318 86.4776 26.3693 86.8441 26.3693C87.3214 26.3693 87.7617 26.4943 88.1651 26.7443C88.5685 26.9915 88.891 27.3651 89.1325 27.8651C89.3739 28.3622 89.4947 28.9858 89.4947 29.7358C89.4947 30.4659 89.3768 31.0824 89.141 31.5852C88.908 32.0852 88.5898 32.4645 88.1864 32.723C87.7859 32.9787 87.337 33.1065 86.8398 33.1065C86.4876 33.1065 86.1879 33.0483 85.9407 32.9318C85.6964 32.8153 85.4961 32.669 85.3398 32.4929C85.1836 32.3139 85.0643 32.1335 84.9819 31.9517H84.9265V35.4545H83.1112ZM84.8881 29.7273C84.8881 30.1165 84.9421 30.456 85.0501 30.7457C85.158 31.0355 85.3143 31.2614 85.5188 31.4233C85.7234 31.5824 85.9719 31.6619 86.2646 31.6619C86.56 31.6619 86.81 31.581 87.0146 31.419C87.2191 31.2543 87.3739 31.027 87.479 30.7372C87.587 30.4446 87.641 30.108 87.641 29.7273C87.641 29.3494 87.5884 29.017 87.4833 28.7301C87.3782 28.4432 87.2234 28.2187 87.0188 28.0568C86.8143 27.8949 86.5629 27.8139 86.2646 27.8139C85.9691 27.8139 85.7191 27.892 85.5146 28.0483C85.3129 28.2045 85.158 28.4261 85.0501 28.7131C84.9421 29 84.8881 29.3381 84.8881 29.7273Z" fill="#2767E3"/>
<path d="M20 21V19.25C20 18.0074 21.0074 17 22.25 17H25.75C26.9926 17 28 18.0074 28 19.25V21H29.75C31.5449 21 33 22.4551 33 24.25V25.75C33 26.3785 32.6687 26.9296 32.1711 27.2382C31.5291 26.4808 30.5707 26 29.5 26C28.3106 26 27.2598 26.5933 26.6273 27.5H26V27C26 26.4477 25.5523 26 25 26H23C22.4477 26 22 26.4477 22 27V27.5H16.75C15.7835 27.5 15 26.7165 15 25.75V24.25C15 22.4551 16.4551 21 18.25 21H20ZM25.75 18.5H22.25C21.8358 18.5 21.5 18.8358 21.5 19.25V21H26.5V19.25C26.5 18.8358 26.1642 18.5 25.75 18.5ZM26.0354 29H26C26 29.5523 25.5523 30 25 30H23C22.4477 30 22 29.5523 22 29H16.75C16.1057 29 15.5052 28.8125 15 28.4891V31.75C15 33.5449 16.4551 35 18.25 35H24.002C24.0007 34.9583 24 34.9167 24 34.875V34.772C24 33.2401 25.2419 32 26.7727 32H27.0505C26.4022 31.3647 26 30.4793 26 29.5C26 29.3302 26.0121 29.1633 26.0354 29Z" fill="#2767E3"/>
</svg>
