<svg width="24" height="25" viewBox="0 0 24 25" fill="none" xmlns="http://www.w3.org/2000/svg">
<path d="M6 3.28461H11.5V8.78461C11.5 10.1653 12.6193 11.2846 14 11.2846H19.5V20.7846C19.5 21.6131 18.8285 22.2846 18 22.2846H6C5.17157 22.2846 4.5 21.6131 4.5 20.7846V4.78461C4.5 3.95618 5.17157 3.28461 6 3.28461ZM13.25 16.5346C13.25 15.8443 12.6903 15.2846 12 15.2846C11.3097 15.2846 10.75 15.8443 10.75 16.5346V19.0346C10.75 19.7249 11.3097 20.2846 12 20.2846C12.6903 20.2846 13.25 19.7249 13.25 19.0346V16.5346ZM10 12.5346C10 11.8443 9.44036 11.2846 8.75 11.2846C8.05964 11.2846 7.5 11.8443 7.5 12.5346V19.0346C7.5 19.7249 8.05964 20.2846 8.75 20.2846C9.44036 20.2846 10 19.7249 10 19.0346V12.5346ZM16.5 14.5346C16.5 13.8443 15.9403 13.2846 15.25 13.2846C14.5597 13.2846 14 13.8443 14 14.5346V19.0346C14 19.7249 14.5597 20.2846 15.25 20.2846C15.9403 20.2846 16.5 19.7249 16.5 19.0346V14.5346ZM14 8.78461V4.49171L18.2929 8.78461H14Z" stroke="#2767E3"/>
</svg>
