<svg width="33" height="33" viewBox="0 0 33 33" fill="none" xmlns="http://www.w3.org/2000/svg">
<g clip-path="url(#clip0_1_4)">
<rect width="24" height="24" transform="translate(0 20.7846) rotate(-60)" fill="#F5F5F5"/>
<path d="M14.7598 23.1105L17.4383 15.9609C17.4383 15.9608 17.4384 15.9607 17.4384 15.9606C17.5436 15.68 17.4582 15.3646 17.228 15.1748L17.2276 15.1745C16.9295 14.9292 16.4883 14.9715 16.2425 15.2702C16.2425 15.2702 16.2424 15.2703 16.2424 15.2703L11.3898 21.1648L11.3898 21.1648L4.06559 19.936L4.0656 19.9359L4.05892 19.9349C3.83288 19.9001 3.76835 19.6052 3.95921 19.4792L3.95921 19.4792L20.7534 8.39074C20.9253 8.27722 21.1531 8.40872 21.1407 8.61438L19.935 28.7028C19.935 28.7028 19.935 28.7028 19.935 28.7028C19.9212 28.9311 19.6336 29.0227 19.4904 28.8443L19.4904 28.8442L19.4861 28.839L14.7598 23.1105ZM16.502 15.6095L16.5019 15.6098L16.502 15.6095Z" stroke="#2767E3"/>
</g>
<defs>
<clipPath id="clip0_1_4">
<rect width="24" height="24" fill="white" transform="translate(0 20.7846) rotate(-60)"/>
</clipPath>
</defs>
</svg>
