<svg width="116" height="20" viewBox="0 0 116 20" fill="none" xmlns="http://www.w3.org/2000/svg">
<path fill-rule="evenodd" clip-rule="evenodd" d="M10.9202 3.4808L12.4431 6.52309C12.5923 6.82176 12.8804 7.02885 13.2145 7.07678L16.6211 7.56714C17.4628 7.68866 17.7977 8.70875 17.1886 9.29324L14.7252 11.6603C14.4831 11.8931 14.3729 12.2277 14.4301 12.5563L15.0115 15.8981C15.1547 16.7248 14.2748 17.3555 13.5225 16.9644L10.4777 15.3855C10.1792 15.2306 9.82168 15.2306 9.52232 15.3855L6.4775 16.9644C5.72519 17.3555 4.84533 16.7248 4.98937 15.8981L5.56987 12.5563C5.62714 12.2277 5.51694 11.8931 5.27485 11.6603L2.8114 9.29324C2.20226 8.70875 2.5372 7.68866 3.37889 7.56714L6.78554 7.07678C7.11961 7.02885 7.40856 6.82176 7.55781 6.52309L9.07979 3.4808C9.45638 2.72857 10.5436 2.72857 10.9202 3.4808Z" fill="#FFB800"/>
<path fill-rule="evenodd" clip-rule="evenodd" d="M34.9202 3.4808L36.4431 6.52309C36.5923 6.82176 36.8804 7.02885 37.2145 7.07678L40.6211 7.56714C41.4628 7.68866 41.7977 8.70875 41.1886 9.29324L38.7252 11.6603C38.4831 11.8931 38.3729 12.2277 38.4301 12.5563L39.0115 15.8981C39.1547 16.7248 38.2748 17.3555 37.5225 16.9644L34.4777 15.3855C34.1792 15.2306 33.8217 15.2306 33.5223 15.3855L30.4775 16.9644C29.7252 17.3555 28.8453 16.7248 28.9894 15.8981L29.5699 12.5563C29.6271 12.2277 29.5169 11.8931 29.2748 11.6603L26.8114 9.29324C26.2023 8.70875 26.5372 7.68866 27.3789 7.56714L30.7855 7.07678C31.1196 7.02885 31.4086 6.82176 31.5578 6.52309L33.0798 3.4808C33.4564 2.72857 34.5436 2.72857 34.9202 3.4808Z" fill="#FFB800"/>
<path fill-rule="evenodd" clip-rule="evenodd" d="M58.9202 3.4808L60.4431 6.52309C60.5923 6.82176 60.8804 7.02885 61.2145 7.07678L64.6211 7.56714C65.4628 7.68866 65.7977 8.70875 65.1886 9.29324L62.7252 11.6603C62.4831 11.8931 62.3729 12.2277 62.4301 12.5563L63.0115 15.8981C63.1547 16.7248 62.2748 17.3555 61.5225 16.9644L58.4777 15.3855C58.1792 15.2306 57.8217 15.2306 57.5223 15.3855L54.4775 16.9644C53.7252 17.3555 52.8453 16.7248 52.9894 15.8981L53.5699 12.5563C53.6271 12.2277 53.5169 11.8931 53.2748 11.6603L50.8114 9.29324C50.2023 8.70875 50.5372 7.68866 51.3789 7.56714L54.7855 7.07678C55.1196 7.02885 55.4086 6.82176 55.5578 6.52309L57.0798 3.4808C57.4564 2.72857 58.5436 2.72857 58.9202 3.4808Z" fill="#FFB800"/>
<path fill-rule="evenodd" clip-rule="evenodd" d="M82.9202 3.4808L84.4431 6.52309C84.5923 6.82176 84.8804 7.02885 85.2145 7.07678L88.6211 7.56714C89.4628 7.68866 89.7977 8.70875 89.1886 9.29324L86.7252 11.6603C86.4831 11.8931 86.3729 12.2277 86.4301 12.5563L87.0115 15.8981C87.1547 16.7248 86.2748 17.3555 85.5225 16.9644L82.4777 15.3855C82.1792 15.2306 81.8217 15.2306 81.5223 15.3855L78.4775 16.9644C77.7252 17.3555 76.8453 16.7248 76.9894 15.8981L77.5699 12.5563C77.6271 12.2277 77.5169 11.8931 77.2748 11.6603L74.8114 9.29324C74.2023 8.70875 74.5372 7.68866 75.3789 7.56714L78.7855 7.07678C79.1196 7.02885 79.4086 6.82176 79.5578 6.52309L81.0798 3.4808C81.4564 2.72857 82.5436 2.72857 82.9202 3.4808Z" fill="#FFB800"/>
<path fill-rule="evenodd" clip-rule="evenodd" d="M106.92 3.4808L108.443 6.52309C108.592 6.82176 108.88 7.02885 109.214 7.07678L112.621 7.56714C113.463 7.68866 113.798 8.70875 113.189 9.29324L110.725 11.6603C110.483 11.8931 110.373 12.2277 110.43 12.5563L111.011 15.8981C111.155 16.7248 110.275 17.3555 109.522 16.9644L106.478 15.3855C106.179 15.2306 105.822 15.2306 105.522 15.3855L102.478 16.9644C101.725 17.3555 100.845 16.7248 100.989 15.8981L101.57 12.5563C101.627 12.2277 101.517 11.8931 101.275 11.6603L98.8114 9.29324C98.2023 8.70875 98.5372 7.68866 99.3789 7.56714L102.786 7.07678C103.12 7.02885 103.409 6.82176 103.558 6.52309L105.08 3.4808C105.456 2.72857 106.544 2.72857 106.92 3.4808Z" fill="#FFB800"/>
</svg>
