<svg width="19" height="23" viewBox="0 0 19 23" fill="none" xmlns="http://www.w3.org/2000/svg">
<path d="M11.7598 16.1105L14.4383 8.96089C14.4383 8.9608 14.4384 8.96071 14.4384 8.96062C14.5436 8.68005 14.4582 8.36456 14.228 8.17479L14.2276 8.17447C13.9295 7.92924 13.4883 7.97147 13.2425 8.27017C13.2425 8.27023 13.2424 8.27028 13.2424 8.27034L8.38983 14.1648L8.38979 14.1648L1.06559 12.936L1.0656 12.9359L1.05892 12.9349C0.832882 12.9001 0.768352 12.6052 0.959205 12.4792L0.959208 12.4792L17.7534 1.39074C17.9253 1.27722 18.1531 1.40872 18.1407 1.61438L16.935 21.7028C16.935 21.7028 16.935 21.7028 16.935 21.7028C16.9212 21.9311 16.6336 22.0227 16.4904 21.8443L16.4904 21.8442L16.4861 21.839L11.7598 16.1105ZM13.502 8.60952L13.5019 8.60979L13.502 8.60952Z" fill="#2767E3" stroke="#2767E3"/>
</svg>
