<svg width="24" height="25" viewBox="0 0 24 25" fill="none" xmlns="http://www.w3.org/2000/svg">
<path d="M16.6482 6.26794L16.6482 6.26786C16.7318 6.15817 16.8887 6.13701 16.9985 6.22072L16.9985 6.22074C19.0325 7.772 20.25 10.1778 20.25 12.7846C20.25 17.1124 16.9174 20.6622 12.6789 21.0071L11.6003 21.0948L12.3662 21.8593L13.1033 22.5951L13.1485 22.6474C13.2123 22.7441 13.2012 22.8763 13.1161 22.9614C13.0185 23.059 12.8602 23.059 12.7626 22.9614L10.7755 20.9743L10.7302 20.9218C10.6663 20.8251 10.6774 20.693 10.7625 20.6079L10.7626 20.6079L10.9201 20.4504C11.1324 20.48 11.3474 20.5011 11.5647 20.5131L11.4354 20.6424L12.8474 20.4888C16.7292 20.0664 19.75 16.7786 19.75 12.7846C19.75 10.3349 18.606 8.07556 16.6953 6.61832L16.6953 6.61829C16.5856 6.53462 16.5644 6.37779 16.6482 6.26794ZM12.43 5.05514L12.557 4.9274L11.1515 5.08056C7.27025 5.5035 4.25 8.791 4.25 12.7846C4.25 15.1278 5.29594 17.2992 7.06767 18.7627C7.17413 18.8506 7.18911 19.0083 7.10122 19.1147L7.10118 19.1147C7.01327 19.2211 6.85572 19.2362 6.74924 19.1482L6.43081 19.5337L6.74924 19.1482C4.86327 17.5903 3.75 15.2781 3.75 12.7846C3.75 8.45722 7.08211 4.90758 11.3202 4.56218L12.3977 4.47438L11.6331 3.71019L10.8838 2.96138C10.7862 2.86375 10.7862 2.70546 10.8838 2.60784C10.9815 2.5102 11.1398 2.5102 11.2375 2.60784L13.2374 4.60783L13.2375 4.60784C13.3351 4.70546 13.3351 4.86375 13.2375 4.96137L13.0806 5.11825C12.8663 5.08832 12.6494 5.06716 12.43 5.05514ZM9.11611 15.6685C9.60427 16.1566 10.3957 16.1566 10.8839 15.6685L12 14.5524L13.1161 15.6685C13.6043 16.1566 14.3957 16.1566 14.8839 15.6685C15.372 15.1803 15.372 14.3889 14.8839 13.9008L13.7678 12.7846L14.8839 11.6685C15.372 11.1803 15.372 10.3889 14.8838 9.90072C14.3957 9.41257 13.6043 9.41257 13.1162 9.90072L12 11.0168L10.8838 9.90072C10.3957 9.41258 9.60427 9.41257 9.11612 9.90072C8.62796 10.3889 8.62797 11.1803 9.11611 11.6685L10.2322 12.7846L9.11611 13.9008C8.62797 14.3889 8.62797 15.1803 9.11611 15.6685ZM17.5 12.7846C17.5 15.8222 15.0376 18.2846 12 18.2846C8.96243 18.2846 6.5 15.8222 6.5 12.7846C6.5 9.74704 8.96243 7.28461 12 7.28461C15.0376 7.28461 17.5 9.74704 17.5 12.7846Z" fill="#2767E3" stroke="#2767E3"/>
</svg>
