<svg width="18" height="22" viewBox="0 0 18 22" fill="none" xmlns="http://www.w3.org/2000/svg">
<path d="M13.6482 4.26794L13.6482 4.26786C13.7318 4.15817 13.8887 4.13701 13.9985 4.22072L13.9985 4.22074C16.0325 5.772 17.25 8.17778 17.25 10.7846C17.25 15.1124 13.9174 18.6622 9.67885 19.0071L8.60027 19.0948L9.36618 19.8593L10.1033 20.5951L10.1485 20.6474C10.2123 20.7441 10.2012 20.8763 10.1161 20.9614C10.0185 21.059 9.86019 21.059 9.76255 20.9614L7.77551 18.9743L7.73019 18.9218C7.66629 18.8251 7.6774 18.693 7.76249 18.6079L7.76255 18.6079L7.92005 18.4504C8.13237 18.48 8.34736 18.5011 8.56468 18.5131L8.43539 18.6424L9.84739 18.4888C13.7292 18.0664 16.75 14.7786 16.75 10.7846C16.75 8.33488 15.606 6.07556 13.6953 4.61832L13.6953 4.61829C13.5856 4.53462 13.5644 4.37779 13.6482 4.26794ZM9.43004 3.05514L9.55701 2.9274L8.15154 3.08056C4.27025 3.5035 1.25 6.791 1.25 10.7846C1.25 13.1278 2.29594 15.2992 4.06767 16.7627C4.17413 16.8506 4.18911 17.0083 4.10122 17.1147L4.10118 17.1147C4.01327 17.2211 3.85572 17.2362 3.74924 17.1482L3.43081 17.5337L3.74924 17.1482C1.86327 15.5903 0.75 13.2781 0.75 10.7846C0.75 6.45722 4.08211 2.90758 8.32021 2.56218L9.39765 2.47438L8.63306 1.71019L7.88385 0.961377C7.78622 0.86375 7.78622 0.705462 7.88385 0.607836C7.98149 0.5102 8.13981 0.5102 8.23745 0.607836L10.2374 2.60783L10.2375 2.60784C10.3351 2.70546 10.3351 2.86375 10.2375 2.96137L10.0806 3.11825C9.86633 3.08832 9.64936 3.06716 9.43004 3.05514ZM6.11611 13.6685C6.60427 14.1566 7.39569 14.1566 7.88385 13.6685L9 12.5524L10.1161 13.6685C10.6043 14.1566 11.3957 14.1566 11.8839 13.6685C12.372 13.1803 12.372 12.3889 11.8839 11.9008L10.7678 10.7846L11.8839 9.66846C12.372 9.1803 12.372 8.38887 11.8838 7.90072C11.3957 7.41257 10.6043 7.41257 10.1162 7.90072L9 9.01682L7.88385 7.90072C7.39569 7.41258 6.60427 7.41257 6.11612 7.90072C5.62796 8.38888 5.62797 9.1803 6.11611 9.66845L7.23221 10.7846L6.11611 11.9008C5.62797 12.3889 5.62797 13.1803 6.11611 13.6685ZM14.5 10.7846C14.5 13.8222 12.0376 16.2846 9 16.2846C5.96243 16.2846 3.5 13.8222 3.5 10.7846C3.5 7.74704 5.96243 5.28461 9 5.28461C12.0376 5.28461 14.5 7.74704 14.5 10.7846Z" fill="white" stroke="white"/>
</svg>
