<svg width="19" height="20" viewBox="0 0 19 20" fill="none" xmlns="http://www.w3.org/2000/svg">
<path d="M12 4C12 2.61929 13.1193 1.5 14.5 1.5C15.8807 1.5 17 2.61929 17 4V4.25C17 4.66421 17.3358 5 17.75 5C18.1642 5 18.5 4.66421 18.5 4.25V4C18.5 1.79086 16.7091 0 14.5 0C12.2909 0 10.5 1.79086 10.5 4V6H3.25C1.45507 6 0 7.45507 0 9.25V16.75C0 18.5449 1.45507 20 3.25 20H12.75C14.5449 20 16 18.5449 16 16.75V9.25C16 7.45507 14.5449 6 12.75 6H12V4ZM8 14.5C7.1716 14.5 6.5 13.8284 6.5 13C6.5 12.1716 7.1716 11.5 8 11.5C8.8284 11.5 9.5 12.1716 9.5 13C9.5 13.8284 8.8284 14.5 8 14.5Z" fill="#2767E3"/>
</svg>
