<svg width="24" height="25" viewBox="0 0 24 25" fill="none" xmlns="http://www.w3.org/2000/svg">
<path d="M10.0297 4.44354C10.8859 2.89571 13.1111 2.89569 13.9673 4.44349L21.7131 18.4449C22.5427 19.9446 21.4581 21.7841 19.7443 21.7841H4.25323C2.53945 21.7841 1.45483 19.9446 2.28438 18.445L10.0297 4.44354ZM12.9973 17.7855C12.9973 17.234 12.5502 16.7868 11.9987 16.7868C11.4471 16.7868 11 17.234 11 17.7855C11 18.337 11.4471 18.7842 11.9987 18.7842C12.5502 18.7842 12.9973 18.337 12.9973 17.7855ZM12.7381 9.93225C12.6882 9.56621 12.3742 9.28431 11.9945 9.28461C11.5802 9.28494 11.2447 9.621 11.2451 10.0352L11.2487 14.5368L11.2556 14.6386C11.3055 15.0046 11.6196 15.2865 11.9993 15.2862C12.4135 15.2859 12.749 14.9498 12.7487 14.5356L12.7451 10.034L12.7381 9.93225Z" fill="#E34927"/>
</svg>
